<svg id="Group_2660" data-name="Group 2660" xmlns="http://www.w3.org/2000/svg" viewBox="0 0 27.993 10.821">
  <defs>
    <style>
      .cls-1 {
        fill: #9d9d9d;
      }

      .cls-2 {
        opacity: 0.254;
      }
    </style>
  </defs>
  <circle id="Ellipse_107" data-name="Ellipse 107" class="cls-1" cx="0.942" cy="0.942" r="0.942" transform="translate(10.696 4.24)"/>
  <g id="Group_2648" data-name="Group 2648" transform="translate(0)">
    <path id="Subtraction_1" data-name="Subtraction 1" class="cls-1" d="M4.985,5.131C2.236,5.131,0,3.869,0,2.318,0,1.392.807.526,2.159,0A4.073,4.073,0,0,0,5.077,1.219,4.081,4.081,0,0,0,7.942.053a4.176,4.176,0,0,1,1.475.976,1.892,1.892,0,0,1,.553,1.288C9.969,3.869,7.733,5.131,4.985,5.131Z" transform="translate(0 5.691)"/>
    <ellipse id="Ellipse_94" data-name="Ellipse 94" class="cls-1" cx="2.826" cy="2.826" rx="2.826" ry="2.826" transform="translate(2.217 0)"/>
  </g>
  <g id="Group_2649" data-name="Group 2649" transform="translate(13.661)">
    <path id="Subtraction_2" data-name="Subtraction 2" class="cls-1" d="M4.985,5.131C2.236,5.131,0,3.869,0,2.318,0,1.392.807.526,2.159,0A4.073,4.073,0,0,0,5.077,1.219,4.081,4.081,0,0,0,7.942.053a4.176,4.176,0,0,1,1.475.976,1.892,1.892,0,0,1,.553,1.288C9.969,3.869,7.733,5.131,4.985,5.131Z" transform="translate(0 5.691)"/>
    <ellipse id="Ellipse_95" data-name="Ellipse 95" class="cls-1" cx="2.826" cy="2.826" rx="2.826" ry="2.826" transform="translate(2.217 0)"/>
  </g>
  <g id="Group_2650" data-name="Group 2650" class="cls-2" transform="translate(20.255 1.48)">
    <path id="Subtraction_3" data-name="Subtraction 3" class="cls-1" d="M3.869,3.982C1.736,3.982,0,3,0,1.8,0,1.081.626.408,1.676,0A3.162,3.162,0,0,0,3.94.946a3.167,3.167,0,0,0,2.224-.9A3.242,3.242,0,0,1,7.309.8a1.469,1.469,0,0,1,.429,1C7.738,3,6,3.982,3.869,3.982Z" transform="translate(0 4.417)"/>
    <ellipse id="Ellipse_98" data-name="Ellipse 98" class="cls-1" cx="2.194" cy="2.194" rx="2.194" ry="2.194" transform="translate(1.721 0)"/>
  </g>
</svg>
